# xmcd CD database file
#
# Track frame offsets:
#	150
#	22380
#	43023
#	58923
#	79210
#	96553
#	111389
#	140345
#	164097
#
# Disc length: 2389 seconds
#
# Revision: 1
# Processed by: cddbd v1.5.2PL0 Copyright (c) Steve Scherf et al.
# Submitted via: CDex 1.70beta2
#
DISCID=8b095309
DTITLE=CYTOKINE - 虹蛇
DYEAR=2007
DGENRE=東方アレンジ
TTITLE0=赤 - 春色小径　～ Colorful Path
TTITLE1=橙 - ティアオイエツォン (Withered leaf)
TTITLE2=黄 - 妖々跋扈
TTITLE3=緑 - 桜花之恋塚　～ Japanese Flower
TTITLE4=青 - プラスチックマインド
TTITLE5=藍 - フラワリングナイト
TTITLE6=紫 - ラクトガール　～ 少女密室
TTITLE7=白黒 - 星の器　～ Casket of Star
TTITLE8=虹蛇 - 上海紅茶館　～ Chinese Tea
EXTD=YEAR: 2007
EXTT0=
EXTT1=
EXTT2=
EXTT3=
EXTT4=
EXTT5=
EXTT6=
EXTT7=
EXTT8=
PLAYORDER=
